{"asset":{"version":"2.0","generator":"THREE.GLTFExporter r175"},"scenes":[{"name":"AuxScene","nodes":[9]}],"scene":0,"nodes":[{"mesh":0},{"mesh":1},{"mesh":2},{"mesh":3},{"mesh":4},{"matrix":[1.0878565864408423,0,-1.0878565864408425,0,0,-1.5384615384615385,0,0,1.0878565864408425,0,1.0878565864408423,0,0,0,0,1],"children":[0,1,2,3,4]},{"children":[5]},{"matrix":[1,0,0,0,0,1,0,0,0,0,1,0,-37.25824527020608,40.76897318546589,32.90681918380794,1],"children":[6]},{"children":[7]},{"children":[8]}],"bufferViews":[{"buffer":0,"byteOffset":0,"byteLength":58896,"target":34962,"byteStride":12},{"buffer":0,"byteOffset":58896,"byteLength":39264,"target":34962,"byteStride":8},{"buffer":0,"byteOffset":98160,"byteLength":58896,"target":34962,"byteStride":12},{"buffer":0,"byteOffset":157056,"byteLength":80496,"target":34962,"byteStride":12},{"buffer":0,"byteOffset":237552,"byteLength":53664,"target":34962,"byteStride":8},{"buffer":0,"byteOffset":291216,"byteLength":80496,"target":34962,"byteStride":12},{"buffer":0,"byteOffset":371712,"byteLength":71856,"target":34962,"byteStride":12},{"buffer":0,"byteOffset":443568,"byteLength":47904,"target":34962,"byteStride":8},{"buffer":0,"byteOffset":491472,"byteLength":71856,"target":34962,"byteStride":12},{"buffer":0,"byteOffset":563328,"byteLength":44496,"target":34962,"byteStride":12},{"buffer":0,"byteOffset":607824,"byteLength":29664,"target":34962,"byteStride":8},{"buffer":0,"byteOffset":637488,"byteLength":44496,"target":34962,"byteStride":12},{"buffer":0,"byteOffset":681984,"byteLength":2736,"target":34962,"byteStride":12},{"buffer":0,"byteOffset":684720,"byteLength":1824,"target":34962,"byteStride":8},{"buffer":0,"byteOffset":686544,"byteLength":2736,"target":34962,"byteStride":12}],"buffers":[{"byteLength":689280,"uri":"data:application/octet-stream;base64,"}],"accessors":[{"bufferView":0,"componentType":5126,"count":4908,"max":[32.41898727416992,53.29999923706055,8.100000381469727],"min":[9.652612686157227,37.702308654785156,-0.6000000238418579],"type":"VEC3"},{"bufferView":1,"componentType":5126,"count":4908,"max":[53.29999923706055,53],"min":[9.652612686157227,-7.099999904632568],"type":"VEC2"},{"bufferView":2,"componentType":5126,"count":4908,"max":[0.9934514760971069,1,1],"min":[-0.977239727973938,-0.9999819397926331,-1],"type":"VEC3"},{"bufferView":3,"componentType":5126,"count":6708,"max":[48.44768524169922,48.1019172668457,8.100000381469727],"min":[24.316898345947266,32.37460708618164,-0.6000000238418579],"type":"VEC3"},{"bufferView":4,"componentType":5126,"count":6708,"max":[48.44768524169922,47.719200134277344],"min":[24.316898345947266,-7.099999904632568],"type":"VEC2"},{"bufferView":5,"componentType":5126,"count":6708,"max":[0.9633294939994812,0.9996339082717896,1],"min":[-0.9792429208755493,-0.9990940093994141,-1],"type":"VEC3"},{"bufferView":6,"componentType":5126,"count":5988,"max":[64.86114501953125,45.5216064453125,8.100000381469727],"min":[37.57624816894531,19.777341842651367,-0.6000000238418579],"type":"VEC3"},{"bufferView":7,"componentType":5126,"count":5988,"max":[64.86114501953125,45.22146224975586],"min":[19.777341842651367,-7.099999904632568],"type":"VEC2"},{"bufferView":8,"componentType":5126,"count":5988,"max":[0.8682015538215637,0.9996963143348694,1],"min":[-0.9415268898010254,-0.9988503456115723,-1],"type":"VEC3"},{"bufferView":9,"componentType":5126,"count":3708,"max":[49.854881286621094,53.29999923706055,8.100000381469727],"min":[-0.36519935727119446,-0.300334095954895,-0.6000000238418579],"type":"VEC3"},{"bufferView":10,"componentType":5126,"count":3708,"max":[53.29999923706055,53],"min":[-0.36519935727119446,-7.099999904632568],"type":"VEC2"},{"bufferView":11,"componentType":5126,"count":3708,"max":[0.8904265761375427,0.9999567866325378,1],"min":[-0.890447199344635,-0.9988881349563599,-1],"type":"VEC3"},{"bufferView":12,"componentType":5126,"count":228,"max":[62.3637809753418,53.29999923706055,8.100000381469727],"min":[47.14576721191406,34.7551383972168,-0.6000000238418579],"type":"VEC3"},{"bufferView":13,"componentType":5126,"count":228,"max":[62.3637809753418,53],"min":[34.7551383972168,-7.099999904632568],"type":"VEC2"},{"bufferView":14,"componentType":5126,"count":228,"max":[0.882569432258606,0.9999591708183289,1],"min":[-0.8745668530464172,-0.5880137085914612,-1],"type":"VEC3"}],"materials":[{"pbrMetallicRoughness":{"baseColorFactor":[0.6375968739867731,0.6653872982754769,0.7083757798856457,1],"metallicFactor":0,"roughnessFactor":0},"doubleSided":true,"extensions":{"KHR_materials_transmission":{"transmissionFactor":1},"KHR_materials_volume":{"thicknessFactor":0,"attenuationColor":[1,1,1]},"KHR_materials_clearcoat":{"clearcoatFactor":0.05,"clearcoatRoughnessFactor":0}}}],"meshes":[{"primitives":[{"mode":4,"attributes":{"POSITION":0,"TEXCOORD_0":1,"NORMAL":2},"material":0}]},{"primitives":[{"mode":4,"attributes":{"POSITION":3,"TEXCOORD_0":4,"NORMAL":5},"material":0}]},{"primitives":[{"mode":4,"attributes":{"POSITION":6,"TEXCOORD_0":7,"NORMAL":8},"material":0}]},{"primitives":[{"mode":4,"attributes":{"POSITION":9,"TEXCOORD_0":10,"NORMAL":11},"material":0}]},{"primitives":[{"mode":4,"attributes":{"POSITION":12,"TEXCOORD_0":13,"NORMAL":14},"material":0}]}],"extensionsUsed":["KHR_materials_transmission","KHR_materials_volume","KHR_materials_clearcoat"]}